<svg width="126" height="33" viewBox="0 0 126 33" fill="none" xmlns="http://www.w3.org/2000/svg">
<rect width="126" height="33" rx="5" fill="#212121"/>
<path d="M25.65 13.4263L28.8715 10.2077L32.1667 13.5057V19.2517L28.7667 22.6517V15.1178L25.65 18.2345V20.1017L22.25 23.5017V21.6345L21.4 22.4845V17.6763L22.25 16.8263V12.0012L25.65 8.60117V13.4263Z" fill="white"/>
<path d="M21.23 22.6574L21.4 22.4845V24.3517L18 27.7517V10.185H21.4V17.6764L18.8273 20.2519L21.23 22.6574Z" fill="white"/>
<path d="M28.472 5L35 11.528V16.3362L32.1667 13.5028V10.185H28.8913L28.8715 10.2048L26.0665 7.40267L28.472 5Z" fill="white"/>
<path d="M49.5 18.44V20H42.996V11.6H49.344V13.16H44.928V14.984H48.828V16.496H44.928V18.44H49.5ZM59.1828 13.448C59.9908 13.448 60.6308 13.688 61.1028 14.168C61.5828 14.64 61.8228 15.352 61.8228 16.304V20H59.9508V16.592C59.9508 16.08 59.8428 15.7 59.6268 15.452C59.4188 15.196 59.1188 15.068 58.7268 15.068C58.2868 15.068 57.9388 15.212 57.6828 15.5C57.4268 15.78 57.2988 16.2 57.2988 16.76V20H55.4268V16.592C55.4268 15.576 55.0188 15.068 54.2028 15.068C53.7708 15.068 53.4268 15.212 53.1708 15.5C52.9148 15.78 52.7868 16.2 52.7868 16.76V20H50.9148V13.544H52.7028V14.288C52.9428 14.016 53.2348 13.808 53.5788 13.664C53.9308 13.52 54.3148 13.448 54.7308 13.448C55.1868 13.448 55.5988 13.54 55.9668 13.724C56.3348 13.9 56.6308 14.16 56.8548 14.504C57.1188 14.168 57.4508 13.908 57.8508 13.724C58.2588 13.54 58.7028 13.448 59.1828 13.448ZM67.3167 13.448C67.9167 13.448 68.4607 13.588 68.9487 13.868C69.4447 14.14 69.8327 14.528 70.1127 15.032C70.3927 15.528 70.5327 16.108 70.5327 16.772C70.5327 17.436 70.3927 18.02 70.1127 18.524C69.8327 19.02 69.4447 19.408 68.9487 19.688C68.4607 19.96 67.9167 20.096 67.3167 20.096C66.4927 20.096 65.8447 19.836 65.3727 19.316V22.328H63.5007V13.544H65.2887V14.288C65.7527 13.728 66.4287 13.448 67.3167 13.448ZM66.9927 18.56C67.4727 18.56 67.8647 18.4 68.1687 18.08C68.4807 17.752 68.6367 17.316 68.6367 16.772C68.6367 16.228 68.4807 15.796 68.1687 15.476C67.8647 15.148 67.4727 14.984 66.9927 14.984C66.5127 14.984 66.1167 15.148 65.8047 15.476C65.5007 15.796 65.3487 16.228 65.3487 16.772C65.3487 17.316 65.5007 17.752 65.8047 18.08C66.1167 18.4 66.5127 18.56 66.9927 18.56ZM75.9499 19.688C75.7659 19.824 75.5379 19.928 75.2659 20C75.0019 20.064 74.7219 20.096 74.4259 20.096C73.6579 20.096 73.0619 19.9 72.6379 19.508C72.2219 19.116 72.0139 18.54 72.0139 17.78V15.128H71.0179V13.688H72.0139V12.116H73.8859V13.688H75.4939V15.128H73.8859V17.756C73.8859 18.028 73.9539 18.24 74.0899 18.392C74.2339 18.536 74.4339 18.608 74.6899 18.608C74.9859 18.608 75.2379 18.528 75.4459 18.368L75.9499 19.688ZM83.2915 13.544L80.3755 20.396C80.0795 21.14 79.7115 21.664 79.2715 21.968C78.8395 22.272 78.3155 22.424 77.6995 22.424C77.3635 22.424 77.0315 22.372 76.7035 22.268C76.3755 22.164 76.1075 22.02 75.8995 21.836L76.5835 20.504C76.7275 20.632 76.8915 20.732 77.0755 20.804C77.2675 20.876 77.4555 20.912 77.6395 20.912C77.8955 20.912 78.1035 20.848 78.2635 20.72C78.4235 20.6 78.5675 20.396 78.6955 20.108L78.7195 20.048L75.9235 13.544H77.8555L79.6675 17.924L81.4915 13.544H83.2915ZM96.8834 11.6L94.1354 20H92.0474L90.1994 14.312L88.2914 20H86.2154L83.4554 11.6H85.4714L87.3674 17.504L89.3474 11.6H91.1474L93.0674 17.552L95.0234 11.6H96.8834ZM100.428 20.096C99.7482 20.096 99.1362 19.956 98.5922 19.676C98.0562 19.388 97.6362 18.992 97.3322 18.488C97.0282 17.984 96.8762 17.412 96.8762 16.772C96.8762 16.132 97.0282 15.56 97.3322 15.056C97.6362 14.552 98.0562 14.16 98.5922 13.88C99.1362 13.592 99.7482 13.448 100.428 13.448C101.108 13.448 101.716 13.592 102.252 13.88C102.788 14.16 103.208 14.552 103.512 15.056C103.816 15.56 103.968 16.132 103.968 16.772C103.968 17.412 103.816 17.984 103.512 18.488C103.208 18.992 102.788 19.388 102.252 19.676C101.716 19.956 101.108 20.096 100.428 20.096ZM100.428 18.56C100.908 18.56 101.3 18.4 101.604 18.08C101.916 17.752 102.072 17.316 102.072 16.772C102.072 16.228 101.916 15.796 101.604 15.476C101.3 15.148 100.908 14.984 100.428 14.984C99.9482 14.984 99.5522 15.148 99.2402 15.476C98.9282 15.796 98.7722 16.228 98.7722 16.772C98.7722 17.316 98.9282 17.752 99.2402 18.08C99.5522 18.4 99.9482 18.56 100.428 18.56ZM107.007 14.396C107.231 14.084 107.531 13.848 107.907 13.688C108.291 13.528 108.731 13.448 109.227 13.448V15.176C109.019 15.16 108.879 15.152 108.807 15.152C108.271 15.152 107.851 15.304 107.547 15.608C107.243 15.904 107.091 16.352 107.091 16.952V20H105.219V13.544H107.007V14.396ZM113.113 17.468L112.213 18.356V20H110.341V11.096H112.213V16.136L114.949 13.544H117.181L114.493 16.28L117.421 20H115.153L113.113 17.468Z" fill="white"/>
<g filter="url(#filter0_d_65:2)">
<circle cx="8" cy="16" r="2" fill="#05FF00"/>
</g>
<defs>
<filter id="filter0_d_65:2" x="4" y="12" width="8" height="8" filterUnits="userSpaceOnUse" color-interpolation-filters="sRGB">
<feFlood flood-opacity="0" result="BackgroundImageFix"/>
<feColorMatrix in="SourceAlpha" type="matrix" values="0 0 0 0 0 0 0 0 0 0 0 0 0 0 0 0 0 0 127 0" result="hardAlpha"/>
<feOffset/>
<feGaussianBlur stdDeviation="1"/>
<feComposite in2="hardAlpha" operator="out"/>
<feColorMatrix type="matrix" values="0 0 0 0 0.019608 0 0 0 0 1 0 0 0 0 0 0 0 0 0.34 0"/>
<feBlend mode="normal" in2="BackgroundImageFix" result="effect1_dropShadow_65:2"/>
<feBlend mode="normal" in="SourceGraphic" in2="effect1_dropShadow_65:2" result="shape"/>
</filter>
</defs>
</svg>